<svg
  xmlns="http://www.w3.org/2000/svg"
  viewBox="0 0 576 512"
  width="64"
  height="64"
  fill="red"
>
  <path d="M275.3 250.5L288 263l12.7-12.5C371.5 171.6 448 140.1 448 85.3 448 38.2 410.6 0 362.5 0 332.6 0 304.5 15.6 288 39 271.5 15.6 243.4 0 213.5 0 165.4 0 128 38.2 128 85.3c0 54.8 76.5 86.3 147.3 165.2zM571.3 359.5c-6.1-14.3-18.7-25.4-33.9-30.4l-115.3-38.4c-13-4.3-27.5-2.3-39.1 5.2l-92.7 58.4c-5.6 3.5-12.7 3.6-18.3.2l-39.8-23.8c-7.4-4.4-16.2-6.5-24.9-6.2l-117.5 3.5c-28.8 .8-54.5 18.3-65.7 45.4L1.3 414.6c-2.5 6-.4 13 .5 19.2 1.1 7.3 3.5 14.2 6.9 20.7l11.3 22.7c10.8 21.8 33.1 35.8 57.6 35.8h184.3c13.1 0 26.1-3.5 37.4-10.1l221.5-129.5c13.8-8.1 19.2-25.3 13.1-41.1z"/>
</svg>
